<svg t="1700006509355" class="icon" viewBox="0 0 1024 1024" version="1.1" xmlns="http://www.w3.org/2000/svg" p-id="18037" width="16" height="16"><path d="M512 85.333333a426.666667 426.666667 0 1 0 426.666667 426.666667A426.666667 426.666667 0 0 0 512 85.333333z m185.6 329.813334l-239.786667 239.786666a20.48 20.48 0 0 1-29.866666 0L326.4 554.666667a21.333333 21.333333 0 0 1 0-30.293334l22.613333-22.613333a20.48 20.48 0 0 1 29.866667 0l64 63.573333 202.24-202.24a21.333333 21.333333 0 0 1 29.866667 0l22.613333 22.613334a21.333333 21.333333 0 0 1 0 29.44z" p-id="18038"></path></svg>